<svg id="visual" viewBox="0 0 1887 250" width="1887" height="250" xmlns="http://www.w3.org/2000/svg" xmlns:xlink="http://www.w3.org/1999/xlink" version="1.1"><rect x="0" y="0" width="1887" height="250" fill="#7EC8E3"></rect><path d="M0 85L78.7 84.3C157.3 83.7 314.7 82.3 472 86C629.3 89.7 786.7 98.3 943.8 100.7C1101 103 1258 99 1415.2 95.7C1572.3 92.3 1729.7 89.7 1808.3 88.3L1887 87L1887 0L1808.3 0C1729.7 0 1572.3 0 1415.2 0C1258 0 1101 0 943.8 0C786.7 0 629.3 0 472 0C314.7 0 157.3 0 78.7 0L0 0Z" fill="#3393b6"></path><path d="M0 58L78.7 58.8C157.3 59.7 314.7 61.3 472 61.5C629.3 61.7 786.7 60.3 943.8 60.7C1101 61 1258 63 1415.2 64.5C1572.3 66 1729.7 67 1808.3 67.5L1887 68L1887 0L1808.3 0C1729.7 0 1572.3 0 1415.2 0C1258 0 1101 0 943.8 0C786.7 0 629.3 0 472 0C314.7 0 157.3 0 78.7 0L0 0Z" fill="#006ea8"></path><path d="M0 35L78.7 37.7C157.3 40.3 314.7 45.7 472 46.7C629.3 47.7 786.7 44.3 943.8 45.3C1101 46.3 1258 51.7 1415.2 51.2C1572.3 50.7 1729.7 44.3 1808.3 41.2L1887 38L1887 0L1808.3 0C1729.7 0 1572.3 0 1415.2 0C1258 0 1101 0 943.8 0C786.7 0 629.3 0 472 0C314.7 0 157.3 0 78.7 0L0 0Z" fill="#004691"></path><path d="M0 15L78.7 17C157.3 19 314.7 23 472 22.7C629.3 22.3 786.7 17.7 943.8 17.8C1101 18 1258 23 1415.2 25.3C1572.3 27.7 1729.7 27.3 1808.3 27.2L1887 27L1887 0L1808.3 0C1729.7 0 1572.3 0 1415.2 0C1258 0 1101 0 943.8 0C786.7 0 629.3 0 472 0C314.7 0 157.3 0 78.7 0L0 0Z" fill="#191970"></path></svg>